<svg width="70" height="70" viewBox="0 0 70 70" fill="none" xmlns="http://www.w3.org/2000/svg">
<g clip-path="url(#clip0_202_282)">
<mask id="mask0_202_282" style="mask-type:luminance" maskUnits="userSpaceOnUse" x="0" y="0" width="70" height="70">
<path d="M70 0H0V70H70V0Z" fill="white"/>
</mask>
<g mask="url(#mask0_202_282)">
<path d="M68.4773 34.9735C68.4773 53.4479 53.5008 68.4244 35.0265 68.4244C16.5521 68.4244 1.57558 53.4479 1.57558 34.9735C1.57558 16.4991 16.5521 1.52264 35.0265 1.52264C53.5008 1.52264 68.4773 16.4991 68.4773 34.9735Z" fill="#FAFF15"/>
<path d="M32.3145 26.6567V25.0876L31.4066 26.3674L31.8145 26.6567L31.4066 26.3674L31.4064 26.3677L31.4056 26.3689L31.4021 26.3738L31.3876 26.3941L31.3303 26.4741C31.2797 26.5444 31.205 26.6479 31.1087 26.7799C30.9161 27.0438 30.6376 27.4214 30.2948 27.8747C29.6085 28.7819 28.6665 29.9896 27.6405 31.1957C26.6123 32.4044 25.5102 33.5994 24.5031 34.488C23.9992 34.9328 23.5309 35.2902 23.1171 35.5338C22.6925 35.7838 22.3776 35.8826 22.1673 35.8826C21.6222 35.8826 20.8523 35.5872 20.0152 35.0819C19.1963 34.5877 18.3855 33.9371 17.7764 33.3247C17.4718 33.0184 17.2266 32.7306 17.0577 32.4854C16.9739 32.3635 16.9182 32.2655 16.8822 32.1905C17.0098 32.2018 17.2038 32.237 17.4828 32.321C18.1648 32.5264 18.9533 32.2799 19.7155 31.8746C20.5021 31.4563 21.3797 30.804 22.2977 30.0109C24.1368 28.422 26.2098 26.2048 28.1486 23.9672C30.0903 21.7262 31.9098 19.4506 33.243 17.7363C33.9098 16.8788 34.4556 16.1611 34.8348 15.6575C34.9128 15.554 34.9837 15.4595 35.0472 15.3747C35.1117 15.4518 35.1833 15.5373 35.2616 15.6306C35.659 16.1041 36.2301 16.7802 36.925 17.5914C38.3146 19.2135 40.2009 21.3775 42.186 23.5425C44.1693 25.7055 46.2587 27.8779 48.053 29.5126C48.9491 30.329 49.7824 31.0212 50.4991 31.5124C50.8573 31.7579 51.1966 31.9602 51.5077 32.1028C51.8114 32.242 52.1266 32.3423 52.426 32.3423C52.7724 32.3423 52.9167 32.4082 52.9606 32.4405C52.9617 32.4412 52.9628 32.4419 52.964 32.4425C52.9722 32.447 52.9825 32.4527 52.9778 32.5125C52.9702 32.6103 52.9155 32.7783 52.7681 33.0125C52.6254 33.2392 52.4172 33.4942 52.1527 33.7594C51.6235 34.2899 50.9033 34.8273 50.1306 35.2297C49.3526 35.635 48.562 35.8826 47.8856 35.8826C47.6133 35.8826 47.2546 35.7742 46.8103 35.5275C46.3722 35.2842 45.889 34.9278 45.3778 34.4846C44.3556 33.5986 43.2678 32.4063 42.2654 31.1987C41.2652 29.994 40.3611 28.7874 39.7063 27.881C39.3792 27.4281 39.1148 27.0509 38.9325 26.7872C38.8414 26.6554 38.7708 26.5521 38.7231 26.4819L38.6691 26.4021L38.6556 26.382L38.6523 26.3771L38.6516 26.376L38.6514 26.3757L38.2357 26.6536L38.6514 26.3757L37.7357 25.0058V26.6536V54.8802H32.3145V26.6567Z" stroke="#731FDD"/>
</g>
</g>
<defs>
<clipPath id="clip0_202_282">
<rect width="70" height="70" fill="white"/>
</clipPath>
</defs>
</svg>
