<svg width="50" height="51" viewBox="0 0 50 51" fill="none" xmlns="http://www.w3.org/2000/svg">
<g id="https://lottiefiles.com/animations/blue-owl-Lj2MdT0xfc">
<g id="Clip path group">
<mask id="mask0_232_868" style="mask-type:luminance" maskUnits="userSpaceOnUse" x="0" y="0" width="50" height="51">
<g id="__lottie_element_1309">
<path id="Vector" d="M50 0.115387H0V50.0385H50V0.115387Z" fill="white"/>
</g>
</mask>
<g mask="url(#mask0_232_868)">
<g id="Group">
<g id="Group_2">
<g id="Group_3">
<path id="Vector_2" d="M23.4929 13.4263C23.4929 14.5596 22.5728 15.4783 21.4377 15.4783C20.3028 15.4783 19.3826 14.5596 19.3826 13.4263C19.3826 12.293 20.3028 11.3743 21.4377 11.3743C22.5728 11.3743 23.4929 12.293 23.4929 13.4263Z" fill="#731FDD"/>
</g>
</g>
<g id="Group_4">
<g id="Group_5">
<path id="Vector_3" d="M33.1483 13.4264C33.1483 14.5597 32.2281 15.4784 31.0931 15.4784C29.9581 15.4784 29.038 14.5597 29.038 13.4264C29.038 12.2931 29.9581 11.3744 31.0931 11.3744C32.2281 11.3744 33.1483 12.2931 33.1483 13.4264Z" fill="#731FDD"/>
</g>
</g>
<g id="Group_6">
<g id="Group_7">
<path id="Vector_4" d="M18.811 8.73863C18.5536 8.71851 17.4403 9.09123 17.4403 9.50417C18.9015 9.4988 21.0167 9.50417 21.0167 9.50417C21.0167 9.50417 19.0685 8.75875 18.811 8.73863Z" fill="#1900EC"/>
</g>
</g>
<g id="Group_8">
<g id="Group_9">
<path id="Vector_5" d="M22.2204 15.2482C22.2204 15.2482 18.146 15.2482 17.2492 15.2482C17.1528 15.3025 17.3553 15.6249 20.2821 15.6249C23.209 15.6249 22.2204 15.2482 22.2204 15.2482Z" fill="#1900EC"/>
</g>
</g>
<g id="Group_10">
<g id="Group_11">
<path id="Vector_6" d="M30.5054 8.73863C30.2479 8.71851 29.1346 9.09123 29.1346 9.50417C30.5958 9.4988 32.7111 9.50417 32.7111 9.50417C32.7111 9.50417 30.7628 8.75875 30.5054 8.73863Z" fill="#1900EC"/>
</g>
</g>
<g id="Group_12">
<g id="Group_13">
<path id="Vector_7" d="M32.5476 15.2482C32.5476 15.2482 28.4732 15.2482 27.5763 15.2482C27.4799 15.3025 27.6824 15.6249 30.6093 15.6249C33.5361 15.6249 32.5476 15.2482 32.5476 15.2482Z" fill="#1900EC"/>
</g>
</g>
<g id="Group_14">
<g id="Group_15">
<path id="Vector_8" d="M38.2328 6.31404C29.6932 6.31404 26.2511 11.9134 24.9799 15.1213C23.7309 11.9123 20.3182 6.31404 11.7096 6.31404V7.67883C12.5728 7.67883 13.3773 7.74163 14.1283 7.85571C12.8897 9.8499 11.8965 12.698 12.5616 15.2864C13.0851 17.3227 14.5245 18.879 16.8403 19.912L16.8865 19.9309C22.2419 21.8648 22.2419 21.8648 24.535 23.7635L24.9712 24.1247L25.4074 23.7635C27.7005 21.8648 27.7005 21.8648 33.0559 19.9309L33.1022 19.912C35.4179 18.879 36.8573 17.3228 37.3806 15.2865C38.0455 12.6993 37.0538 9.85263 35.8159 7.85863C36.5667 7.7427 37.3704 7.67883 38.2328 7.67883V6.31404ZM31.1696 9.54247C32.2109 9.98982 32.9156 11.0325 32.9156 12.1824C32.9156 13.7666 31.6247 15.0553 30.0382 15.0553C28.8811 15.0553 27.8602 14.3768 27.4055 13.3395C28.2404 12.0115 29.4475 10.6169 31.1696 9.54247ZM18.7988 9.53301C20.5209 10.6017 21.7232 11.9891 22.5524 13.3127C22.104 14.3661 21.0781 15.0553 19.9079 15.0553C18.3212 15.0553 17.0304 13.7666 17.0304 12.1824C17.0304 11.0138 17.7419 9.97403 18.7988 9.53301ZM36.0566 14.9472C35.6437 16.5538 34.4698 17.8015 32.5671 18.656C27.4554 20.5019 27.0417 20.6529 24.9712 22.3527C22.9006 20.6529 22.487 20.5019 17.3753 18.656C15.4727 17.8013 14.2985 16.5537 13.8858 14.9472C13.2452 12.4548 14.5383 9.66318 15.5671 8.153C16.2168 8.32452 16.8208 8.5365 17.3799 8.78241C16.3268 9.56538 15.6636 10.8137 15.6636 12.1824C15.6636 14.519 17.5675 16.42 19.9079 16.42C21.2902 16.42 22.536 15.7672 23.3178 14.7094C23.9577 16.0625 24.2102 17.1615 24.2741 17.4785C24.3399 17.8088 24.6322 18.0494 24.9692 18.0507H24.9719C25.3078 18.0507 25.6006 17.8127 25.668 17.4862C25.7347 17.1692 25.9955 16.0743 26.6409 14.7249C27.4246 15.773 28.6666 16.42 30.0382 16.42C32.3784 16.42 34.2823 14.519 34.2823 12.1824C34.2823 10.831 33.6214 9.58049 32.5764 8.79333C33.133 8.54605 33.7342 8.33281 34.3801 8.15993C35.4082 9.67176 36.6964 12.4587 36.0566 14.9472Z" fill="#731FDD"/>
</g>
</g>
<g id="Group_16">
<g id="Group_17">
<path id="Vector_9" d="M24.9712 44.9051C22.398 44.9051 21.7905 44.4438 19.5295 42.7266C19.0095 42.332 18.4202 41.8843 17.6848 41.347L17.2451 41.0258L17.4607 40.5262C17.4655 40.5149 17.9908 39.2794 19.4952 34.7814L19.855 33.7059L20.6383 34.5269C20.6585 34.5479 22.5627 36.5374 24.9712 38.5712C27.3799 36.5374 29.2838 34.5479 29.304 34.5269L30.0872 33.7059L30.4472 34.7814C31.9518 39.2796 32.4771 40.5152 32.482 40.5271L32.6961 41.026L32.2576 41.347C31.5221 41.8843 30.9328 42.332 30.4129 42.7266C28.152 44.4438 27.5443 44.9051 24.9712 44.9051ZM18.9179 40.5586C19.4705 40.9671 19.9361 41.3209 20.3568 41.6405C22.574 43.3239 22.8588 43.5403 24.9712 43.5403C27.0835 43.5403 27.3683 43.3239 29.5855 41.6405C30.0062 41.3207 30.4719 40.9671 31.0245 40.5586C30.7853 39.9351 30.3136 38.6543 29.505 36.2668C28.638 37.1254 27.1383 38.5583 25.4063 39.9867L24.9712 40.3458L24.5357 39.9867C22.804 38.5583 21.3043 37.1254 20.4374 36.2668C19.6289 38.6543 19.1572 39.9351 18.9179 40.5586Z" fill="#731FDD"/>
</g>
</g>
<g id="Group_18">
<g id="Group_19">
<path id="Vector_10" d="M19.4236 38.726L18.6256 37.937C12.4352 31.8179 11.1082 26.2349 11.085 22.6286C11.0597 18.6703 12.5298 16.1933 12.5924 16.0897L12.9814 15.4463L13.5853 15.8949C13.6936 15.9754 16.2619 17.9076 18.3189 21.5603C20.2181 24.9331 22.0096 30.4632 19.7587 37.6555L19.4236 38.726ZM13.4086 17.5343C13.0103 18.485 12.4237 20.302 12.4528 22.7022C12.5071 27.1888 14.6876 31.8135 18.7726 36.1347C21.425 25.8969 15.4346 19.3861 13.4086 17.5343Z" fill="#731FDD"/>
</g>
</g>
<g id="Group_20">
<g id="Group_21">
<path id="Vector_11" d="M2.92825 37.4144L2.82502 36.2979C2.0235 27.6379 4.60164 22.5092 6.90575 19.7316C9.43491 16.6829 12.1556 15.7285 12.2702 15.6894L12.9825 15.4461L13.1562 16.1773C13.1873 16.3085 13.9103 19.4367 13.1341 23.5549C12.4172 27.3575 10.2288 32.7436 3.87412 36.8093L2.92825 37.4144ZM11.9653 17.3199C11.0482 17.7926 9.42905 18.8082 7.906 20.6656C5.05893 24.1377 3.75141 29.0798 4.09805 35.0115C12.721 28.8702 12.3248 20.0385 11.9653 17.3199Z" fill="#731FDD"/>
</g>
</g>
<g id="Group_22">
<g id="Group_23">
<path id="Vector_12" d="M11.0551 39.5227L10.5762 38.509C6.86117 30.6466 7.52906 24.9467 8.74366 21.5493C10.0769 17.8203 12.3065 15.9935 12.4008 15.9175L12.9867 15.4454L13.4 16.073C13.4741 16.1857 15.2233 18.8776 15.9027 23.0122C16.5298 26.83 16.3161 32.6385 11.7367 38.6308L11.0551 39.5227ZM12.672 17.5537C11.9721 18.3114 10.7983 19.819 10.0028 22.0849C8.51565 26.3203 8.97766 31.4106 11.3322 36.8652C17.3326 28.1473 13.9397 19.985 12.672 17.5537Z" fill="#731FDD"/>
</g>
</g>
<g id="Group_24">
<g id="Group_25">
<path id="Vector_13" d="M30.5813 38.726L30.2463 37.6555C27.9951 30.4631 29.7866 24.9331 31.6859 21.5602C33.7428 17.9076 36.3111 15.9753 36.4194 15.8948L37.0235 15.4463L37.4126 16.0898C37.4751 16.1933 38.9453 18.6703 38.9196 22.6286C38.8966 26.2349 37.5697 31.8179 31.3794 37.937L30.5813 38.726ZM36.5959 17.533C35.7362 18.3148 34.1649 19.9261 32.8495 22.2789C30.48 26.5161 29.9375 31.1726 31.2313 36.1353C35.3171 31.8139 37.4975 27.1889 37.5521 22.7021C37.5812 20.3009 36.9939 18.4834 36.5959 17.533Z" fill="#731FDD"/>
</g>
</g>
<g id="Group_26">
<g id="Group_27">
<path id="Vector_14" d="M38.9498 39.5227L38.2682 38.6308C33.6885 32.6385 33.4749 26.83 34.1021 23.0121C34.7814 18.8776 36.5306 16.1856 36.6046 16.073L37.0181 15.4454L37.6041 15.9176C37.6983 15.9936 39.928 17.8202 41.2609 21.5493C42.4756 24.9467 43.1437 30.6466 39.4287 38.5089L38.9498 39.5227ZM37.332 17.5525C36.7928 18.5805 35.8697 20.6308 35.4411 23.2908C34.6688 28.0813 35.7557 32.6429 38.672 36.866C41.0271 31.411 41.489 26.3205 40.002 22.0847C39.2062 19.818 38.0316 18.31 37.332 17.5525Z" fill="#731FDD"/>
</g>
</g>
<g id="Group_28">
<g id="Group_29">
<path id="Vector_15" d="M47.0766 37.4144L46.1308 36.8092C39.7758 32.7436 37.5876 27.3576 36.8707 23.5549C36.0944 19.4368 36.8174 16.3085 36.8485 16.1773L37.0224 15.446L37.7347 15.6894C37.8493 15.7286 40.57 16.6828 43.0988 19.7317C45.4031 22.5093 47.9814 27.6378 47.1799 36.2978L47.0766 37.4144ZM38.0384 17.3191C37.8833 18.4696 37.7173 20.7123 38.2246 23.3588C39.1379 28.1254 41.7204 32.0409 45.9065 35.0125C46.2535 29.0802 44.9458 24.1379 42.0988 20.6655C40.5751 18.8073 38.9551 17.7917 38.0384 17.3191Z" fill="#731FDD"/>
</g>
</g>
<g id="Group_30">
<g id="Group_31">
<path id="Vector_16" d="M24.9714 10.3141L24.5026 9.87428C24.473 9.84649 21.5045 7.08132 17.8433 5.67821L15.9834 4.96544L17.8897 4.3881C20.3187 3.65262 23.1644 3.15855 24.9711 3.15855C26.7778 3.15855 29.6235 3.65262 32.0525 4.3881L33.9588 4.96544L32.0989 5.67821C28.4377 7.08132 25.4692 9.84649 25.4396 9.87428L24.9714 10.3141ZM20.1226 5.20325C22.3751 6.34846 24.1609 7.77049 24.9711 8.46425C25.7813 7.77049 27.5672 6.34846 29.8197 5.20325C28.0268 4.78281 26.2228 4.52325 24.9711 4.52325C23.7195 4.52325 21.9154 4.78281 20.1226 5.20325Z" fill="#731FDD"/>
</g>
</g>
</g>
</g>
</g>
</g>
</svg>
